<?xml version="1.0" encoding="utf-8"?>
<svg width="100" height="100" viewBox="0 0 100 100" version="1.1" id="svg8" xmlns="http://www.w3.org/2000/svg" xmlns:bx="https://boxy-svg.com">
  <defs id="defs12">
    <style bx:fonts="Assistant">@import url(https://fonts.googleapis.com/css2?family=Assistant%3Aital%2Cwght%400%2C200%3B0%2C300%3B0%2C400%3B0%2C500%3B0%2C600%3B0%2C700%3B0%2C800&amp;display=swap);</style>
  </defs>
  <text id="text6" style="font-family: Assistant; font-size: 16.3674px; font-weight: 800; letter-spacing: 1.63674px; stroke-width: 1.63674px; text-anchor: middle; white-space: pre;" x="50.3357" y="90.3338">SOFTWAVE</text>
  <circle id="circle2-7" style="fill-opacity: 1; stroke-width: 0.62877; fill: rgb(194, 202, 232);" r="25.150776" cy="38.077251" cx="51.93803" transform="rotate(1.0732597)"/>
  <path style="fill-opacity: 1; fill-rule: nonzero; stroke: none; stroke-width: 1.01963; fill: rgb(37, 78, 112);" d="m 10.217269,55.215784 0,0 c 0.11653,0.0769 0.395085,-0.416952 2.482928,-1.843914 0.35314,-0.241357 0.798743,-0.508075 1.324185,-0.790925 1.886412,-1.015474 5.445582,-2.583505 9.226581,-3.168545 1.652917,-0.255758 3.285053,-0.317274 4.866752,-0.129141 1.531062,0.18211 2.903353,0.583303 4.214526,1.170208 1.28286,0.574231 2.591628,1.365891 3.954113,2.355318 1.443289,1.048106 3.085758,2.420485 4.935601,4.223409 2.27838,2.117694 4.557489,3.836599 6.800954,5.186468 4.221345,2.539938 8.708545,4.00349 13.122115,4.399185 6.915437,0.619998 12.6789,-1.426162 16.81681,-4.337041 4.736214,-3.331766 7.068912,-7.443742 8.490917,-10.358896 0.35752,-0.732925 0.662695,-1.402019 0.945392,-1.997672 0.474511,-0.999814 0.874297,-1.908843 1.211413,-2.760787 0.784108,-1.981565 1.136835,-3.445605 1.18172,-4.220175 -0.237308,0.723499 -0.600208,2.200016 -1.801737,3.884929 -0.507272,0.71135 -1.145036,1.429031 -1.925421,2.082403 -0.467324,0.391264 -1.026535,0.766063 -1.665587,1.109019 -2.625178,1.408841 -6.262309,2.125909 -10.055989,1.6606 -3.26207,-0.400106 -6.106464,-1.57845 -9.0622,-3.182194 C 63.434548,47.496528 61.251491,46.165948 58.920185,44.645509 57.644595,43.813591 56.1465,42.807667 54.47583,41.544724 51.118178,38.892601 47.5271,36.902053 43.803431,35.688061 40.229294,34.52282 36.7242,34.135927 33.423403,34.415727 c -3.268732,0.277082 -6.147938,1.189858 -8.596949,2.42047 -2.510807,1.261664 -4.552044,2.846139 -6.173265,4.424523 -3.702779,3.604944 -5.6191,7.563362 -6.543903,9.550943 -0.269003,0.578139 -0.489493,1.069927 -0.685041,1.474384 -1.208433,2.499431 -1.301881,2.867104 -1.206976,2.929737 z" id="path1728-5" class="UnoptimicedTransforms" transform="matrix(1.0423467,0,0,1.0423467,-2.1074254,-7.7461084)"/>
  <path id="path10529-35" style="stroke-width: 2.18893; fill: rgb(240, 240, 240);" d="m 59.0072,22.721409 5.752765,-0.415464 -0.204717,5.913331 -6.157575,0.777425 z"/>
  <path id="path10529-3-6" style="stroke-width: 1.09447; fill: rgb(255, 255, 255);" d="m 53.163434,29.204433 2.876383,-0.207732 -0.102358,2.956665 -3.078788,0.388712 z"/>
  <text style="white-space: pre; fill: rgb(51, 51, 51); font-family: Arial, sans-serif; font-size: 4px;" x="111.489" y="69.22">Enter your text here</text>
</svg>